<svg version="1.1" id="Layer_1" xmlns="http://www.w3.org/2000/svg" xmlns:xlink="http://www.w3.org/1999/xlink" x="0px" y="0px"
	 width="100%" viewBox="0 0 1024 176" enable-background="new 0 0 1024 176" xml:space="preserve">
<path fill="#000000" opacity="1.000000" stroke="none" 
	d="
M1.000000,124.468658 
	C10.545080,126.945396 18.311440,133.216110 26.842337,138.021423 
	C47.833206,149.845276 70.505905,154.686508 94.291336,155.705597 
	C130.268570,157.247025 163.764359,148.836472 194.442902,130.136353 
	C210.825882,120.150101 226.369247,120.145927 242.827148,129.812576 
	C258.624115,139.091019 274.951935,147.458206 292.893311,152.097092 
	C302.958313,154.699463 313.135590,156.223053 323.527130,155.648407 
	C333.720520,155.084702 340.699219,149.099960 346.392883,141.286407 
	C354.225372,130.537720 359.123749,118.302063 363.982483,106.061600 
	C371.045776,88.267281 377.323883,70.115349 387.636810,53.798824 
	C395.649994,41.120880 405.509125,30.360897 420.272125,25.697947 
	C439.789154,19.533430 457.472473,23.999634 473.281647,36.417912 
	C485.605042,46.098049 494.659363,58.767483 504.013916,71.126404 
	C515.776794,86.667114 527.149536,102.505165 541.384460,116.018608 
	C565.891724,139.283691 594.946411,151.929825 628.561462,154.914001 
	C669.606262,158.557800 708.307556,149.793335 745.819214,133.990845 
	C781.110352,119.123817 813.597717,99.048531 846.574158,79.869965 
	C869.045166,66.801170 891.726013,54.122402 915.617981,43.747257 
	C950.226196,28.718555 986.302917,21.495464 1024.531372,23.005991 
	C1025.000000,74.315102 1025.000000,125.630196 1025.000000,176.952301 
	C683.666687,176.959320 342.333344,176.959320 1.000000,176.959320 
	C1.000000,159.591537 1.000000,142.264435 1.000000,124.468658 
z"/>
</svg>