<svg version="1.1" id="Layer_1" xmlns="http://www.w3.org/2000/svg" xmlns:xlink="http://www.w3.org/1999/xlink" x="0px" y="0px"
	 width="100%" viewBox="0 0 1897 456" enable-background="new 0 0 1897 456" xml:space="preserve">
<path fill="#F8CE35" opacity="1.000000" stroke="none" 
	d="
M1.000000,43.000000 
	C1.000000,29.002945 1.000000,15.005891 1.000000,1.004418 
	C632.030945,1.000000 1263.061890,1.000000 1894.546265,1.468657 
	C1894.964844,15.607726 1894.929932,29.278137 1894.436035,42.978004 
	C1891.145752,43.098442 1888.313477,43.164948 1885.483398,43.284210 
	C1858.407227,44.425259 1832.266968,49.984161 1807.583984,61.191769 
	C1777.518555,74.843300 1750.973755,93.925331 1728.145874,117.610878 
	C1700.061768,146.750000 1672.898804,176.781372 1645.515869,206.590561 
	C1618.209351,236.316101 1589.968872,265.037537 1558.516602,290.461121 
	C1518.011597,323.202209 1473.495605,348.878937 1424.672852,367.087585 
	C1360.253784,391.112854 1293.226929,400.710693 1224.932861,402.751587 
	C1183.759033,403.982056 1142.691406,401.762054 1101.719238,397.220703 
	C1034.624023,389.783875 969.110352,375.087158 904.641418,355.392151 
	C825.961792,331.355927 749.861267,300.589874 675.076416,266.539795 
	C595.190308,230.167053 515.686584,192.954559 435.817078,156.544983 
	C373.931915,128.333832 310.679108,103.560570 245.664200,83.426064 
	C181.508408,63.557621 116.162888,49.772091 49.410828,44.653374 
	C52.063637,44.287647 54.377834,44.025517 56.692108,44.024891 
	C192.451172,43.988117 328.210236,43.972965 464.440796,43.973022 
	C568.006897,43.990318 671.101501,43.990318 774.196106,43.990318 
	C774.197388,43.666386 774.198669,43.342457 774.199951,43.018524 
	C773.395447,43.018524 772.591003,43.018467 771.786499,43.018532 
	C669.180725,43.027107 566.575012,43.035690 463.502533,43.039764 
	C324.283875,43.021309 185.531921,43.003475 46.779972,43.033432 
	C44.856762,43.033844 42.933681,43.635536 40.544327,43.989151 
	C27.052078,43.681141 14.026039,43.340572 1.000000,43.000000 
z"/>
<path fill="#3284E2" opacity="1.000000" stroke="none" 
	d="
M1895.000000,457.000000 
	C1263.777344,457.000000 632.554688,457.000000 1.000000,457.000000 
	C1.000000,324.300781 1.000000,191.601303 1.468374,58.464722 
	C42.477345,58.411053 82.760712,61.695400 122.861115,67.803650 
	C196.142120,78.966095 266.806793,99.744743 336.049805,125.601494 
	C402.883148,150.558426 467.645172,180.358429 532.256836,210.522049 
	C602.430054,243.282059 672.676025,275.911591 743.383240,307.494537 
	C800.905212,333.187958 860.089417,354.689270 920.593933,372.421082 
	C982.581116,390.587463 1045.571045,403.758392 1109.939087,409.703735 
	C1150.117432,413.414795 1190.371216,414.954376 1230.762329,413.185089 
	C1273.307007,411.321503 1315.390625,406.443542 1356.913940,396.939667 
	C1438.062256,378.366425 1510.131592,341.877808 1573.107788,287.416809 
	C1609.744995,255.733536 1642.722534,220.421997 1675.271362,184.675873 
	C1698.058350,159.650497 1721.401123,135.194992 1747.506348,113.520729 
	C1790.256592,78.026840 1838.710083,57.819511 1894.928955,58.504738 
	C1894.984741,191.643646 1894.992310,324.321838 1895.000000,457.000000 
z"/>
<path fill="#FCFDFC" opacity="1.000000" stroke="none" 
	d="
M1894.880859,58.044003 
	C1838.710083,57.819511 1790.256592,78.026840 1747.506348,113.520729 
	C1721.401123,135.194992 1698.058350,159.650497 1675.271362,184.675873 
	C1642.722534,220.421997 1609.744995,255.733536 1573.107788,287.416809 
	C1510.131592,341.877808 1438.062256,378.366425 1356.913940,396.939667 
	C1315.390625,406.443542 1273.307007,411.321503 1230.762329,413.185089 
	C1190.371216,414.954376 1150.117432,413.414795 1109.939087,409.703735 
	C1045.571045,403.758392 982.581116,390.587463 920.593933,372.421082 
	C860.089417,354.689270 800.905212,333.187958 743.383240,307.494537 
	C672.676025,275.911591 602.430054,243.282059 532.256836,210.522049 
	C467.645172,180.358429 402.883148,150.558426 336.049805,125.601494 
	C266.806793,99.744743 196.142120,78.966095 122.861115,67.803650 
	C82.760712,61.695400 42.477345,58.411053 1.468374,58.013817 
	C1.000000,53.310745 1.000000,48.621487 1.000000,43.466118 
	C14.026039,43.340572 27.052078,43.681141 40.860748,44.228264 
	C44.119671,44.582874 46.595959,44.730934 49.072250,44.878994 
	C116.162888,49.772091 181.508408,63.557621 245.664200,83.426064 
	C310.679108,103.560570 373.931915,128.333832 435.817078,156.544983 
	C515.686584,192.954559 595.190308,230.167053 675.076416,266.539795 
	C749.861267,300.589874 825.961792,331.355927 904.641418,355.392151 
	C969.110352,375.087158 1034.624023,389.783875 1101.719238,397.220703 
	C1142.691406,401.762054 1183.759033,403.982056 1224.932861,402.751587 
	C1293.226929,400.710693 1360.253784,391.112854 1424.672852,367.087585 
	C1473.495605,348.878937 1518.011597,323.202209 1558.516602,290.461121 
	C1589.968872,265.037537 1618.209351,236.316101 1645.515869,206.590561 
	C1672.898804,176.781372 1700.061768,146.750000 1728.145874,117.610878 
	C1750.973755,93.925331 1777.518555,74.843300 1807.583984,61.191769 
	C1832.266968,49.984161 1858.407227,44.425259 1885.483398,43.284210 
	C1888.313477,43.164948 1891.145752,43.098442 1894.736206,43.114906 
	C1896.330322,43.481571 1897.165161,43.740788 1898.000000,44.000000 
	C1898.000000,48.356899 1898.000000,52.713799 1897.610107,57.536598 
	C1896.440430,58.016335 1895.660645,58.030167 1894.880859,58.044003 
z"/>
<path fill="#FCFCFC" opacity="1.000000" stroke="none" 
	d="
M1894.928955,58.504738 
	C1895.660645,58.030167 1896.440430,58.016335 1897.610107,58.001251 
	C1898.000000,189.666672 1898.006958,321.333344 1897.896973,452.999908 
	C1897.895996,454.252594 1899.963013,457.314819 1895.500000,457.000000 
	C1894.992310,324.321838 1894.984741,191.643646 1894.928955,58.504738 
z"/>
<path fill="#FCFCFC" opacity="1.000000" stroke="none" 
	d="
M1898.000000,43.531342 
	C1897.165161,43.740788 1896.330322,43.481571 1895.195312,43.085449 
	C1894.929932,29.278137 1894.964844,15.607726 1894.999878,1.468657 
	C1895.990356,1.000000 1896.980835,1.000000 1898.000000,1.000000 
	C1898.000000,15.020884 1898.000000,29.041782 1898.000000,43.531342 
z"/>
<path fill="#FAD963" opacity="1.000000" stroke="none" 
	d="
M49.410828,44.653374 
	C46.595959,44.730934 44.119671,44.582874 41.326958,44.195702 
	C42.933681,43.635536 44.856762,43.033844 46.779972,43.033432 
	C185.531921,43.003475 324.283875,43.021309 463.506805,43.267391 
	C463.977783,43.499531 463.969299,43.955727 463.969299,43.955727 
	C328.210236,43.972965 192.451172,43.988117 56.692108,44.024891 
	C54.377834,44.025517 52.063637,44.287647 49.410828,44.653374 
z"/>
<path fill="#F9D550" opacity="1.000000" stroke="none" 
	d="
M464.440796,43.973022 
	C463.969299,43.955727 463.977783,43.499531 463.973511,43.271904 
	C566.575012,43.035690 669.180725,43.027107 771.786499,43.018532 
	C772.591003,43.018467 773.395447,43.018524 774.199951,43.018524 
	C774.198669,43.342457 774.197388,43.666386 774.196106,43.990318 
	C671.101501,43.990318 568.006897,43.990318 464.440796,43.973022 
z"/>
</svg>